# xmcd CD database file
#
# Track frame offsets:
#	150
#	39278
#	85178
#	112553
#	145778
#	174428
#	199928
#	240128
#	259853
#
# Disc length: 4143 seconds
#
# Revision: 0
# Processed by: cddbd v1.5.1PL2 Copyright (c) Steve Scherf et al.
# Submitted via: CDex 1.51
#
DISCID=63102d09
DTITLE=Ramon Vazquez - On the Move
DYEAR=2004
DGENRE=Jazz
TTITLE0=April
TTITLE1=Eso na´ma
TTITLE2=Monk´s Changui
TTITLE3=Lagrimas Negras
TTITLE4=La Varita Magica
TTITLE5=Caravan
TTITLE6=Campanitas de Cristal
TTITLE7=Loro
TTITLE8=Negrele Blues
EXTD=YEAR: 2004
EXTT0=
EXTT1=
EXTT2=
EXTT3=
EXTT4=
EXTT5=
EXTT6=
EXTT7=
EXTT8=
PLAYORDER=
